<svg xmlns="http://www.w3.org/2000/svg" width="1600" height="560" fill="none" viewBox="0 0 1600 560"><style>
#fw1_inner {fill:#C494A8;}
#fw1_mid{opacity:0.43;}
.mid {fill: #ECEBCA; }
.outer{fill:#F7F6E7;}
#fw2_mid{opacity:0.45;}
#fw2_inner{fill:#ACDBC2;}
#firework3 {fill: pink; }
</style><defs><clipPath id="clip0_2816_6772" class="clip0_2816"><path fill="#fff" d="M0 0h1600v560H0z"></path></clipPath></defs><def><g id="fw1_inner" class="inner"><circle cx="438" cy="266.7" r="4.1"></circle><circle cx="420.8" cy="273.8" r="4.1"></circle><circle cx="403.5" cy="266.3" r="4.1"></circle><circle cx="396.1" cy="249.1" r="4.1"></circle><circle cx="420.8" cy="224.5" r="4.1"></circle><circle cx="438" cy="231" r="4.1"></circle></g><g id="fw1_mid" class="mid"><circle cx="448.9" cy="278" r="4"></circle><circle cx="437.3" cy="285.4" r="4"></circle><circle cx="403.5" cy="285.4" r="4"></circle><circle cx="393.1" cy="277.9" r="4"></circle><circle cx="383.3" cy="264.5" r="4"></circle><circle cx="380.3" cy="249.1" r="4"></circle><circle cx="391.9" cy="220.7" r="4"></circle><circle cx="404.7" cy="211.7" r="4"></circle><circle cx="420.8" cy="208.7" r="4"></circle><circle cx="437.3" cy="211.7" r="4"></circle><circle cx="448.9" cy="220.7" r="4"></circle><circle cx="457.7" cy="233" r="4"></circle><circle cx="420.8" cy="289.6" r="4"></circle><circle cx="459.5" cy="288.4" r="4"></circle><circle cx="447.9" cy="297" r="4"></circle><circle cx="434.6" cy="303.9" r="4"></circle><circle cx="420.8" cy="304.7" r="4"></circle><circle cx="407.7" cy="303.9" r="4"></circle><circle cx="394.9" cy="298.1" r="4"></circle><circle cx="383.3" cy="289.6" r="4"></circle><circle cx="373.8" cy="278" r="4"></circle><circle cx="367.1" cy="264.5" r="4"></circle><circle cx="365.2" cy="249.1" r="4"></circle><circle cx="367.1" cy="234.5" r="4"></circle><circle cx="372.9" cy="220.7" r="4"></circle><circle cx="394.9" cy="200.4" r="4"></circle><circle cx="407.7" cy="195.4" r="4"></circle><circle cx="420.7" cy="193.5" r="4"></circle><circle cx="435.2" cy="195.4" r="4"></circle><circle cx="447.9" cy="200.4" r="4"></circle><circle cx="459.5" cy="210.2" r="4"></circle><circle cx="468.2" cy="220.7" r="4"></circle><circle cx="474" cy="234.5" r="4"></circle><circle cx="476.4" cy="249.1" r="4"></circle><circle cx="468.2" cy="277.9" r="4"></circle><circle cx="420.7" cy="179.6" r="4"></circle><circle cx="437.3" cy="180.8" r="4"></circle><circle cx="455.5" cy="188.8" r="4"></circle><circle cx="469.5" cy="200.2" r="4"></circle><circle cx="480.8" cy="212.7" r="4"></circle><circle cx="487.3" cy="230.5" r="4"></circle><circle cx="490.3" cy="249.1" r="4"></circle><circle cx="487.4" cy="268" r="4"></circle><circle cx="469.5" cy="298.1" r="4"></circle><circle cx="454.7" cy="309.7" r="4"></circle><circle cx="438.1" cy="316.3" r="4"></circle><circle cx="420.7" cy="318.7" r="4"></circle><circle cx="403.7" cy="316.3" r="4"></circle><circle cx="387.3" cy="309.7" r="4"></circle><circle cx="372.9" cy="299.9" r="4"></circle><circle cx="361.2" cy="284.8" r="4"></circle><circle cx="353.6" cy="266.3" r="4"></circle><circle cx="351.3" cy="249.1" r="4"></circle><circle cx="354.6" cy="230.3" r="4"></circle><circle cx="387.3" cy="187.7" r="4"></circle><circle cx="403.7" cy="181.9" r="4"></circle><circle cx="420.8" cy="179.6" r="4"></circle></g><g id="fw1_outer" class="outer"><circle cx="478.7" cy="308.6" r="4"></circle><circle cx="460.5" cy="322.1" r="4"></circle><circle cx="442.1" cy="329.4" r="4"></circle><circle cx="420.7" cy="332.6" r="4"></circle><circle cx="380.3" cy="322.1" r="4"></circle><circle cx="363.6" cy="309.7" r="4"></circle><circle cx="349.7" cy="292.3" r="4"></circle><circle cx="340.7" cy="270.3" r="4"></circle><circle cx="337.3" cy="249.1" r="4"></circle><circle cx="340.7" cy="225.7" r="4"></circle><circle cx="351.3" cy="202.9" r="4"></circle><circle cx="400.7" cy="169.2" r="4"></circle><circle cx="420.8" cy="165.7" r="4"></circle><circle cx="441" cy="167.5" r="4"></circle><circle cx="462.4" cy="176.1" r="4"></circle><circle cx="478.7" cy="188.8" r="4"></circle><circle cx="491.4" cy="204.4" r="4"></circle><circle cx="500.6" cy="224.7" r="4"></circle><circle cx="504.6" cy="249.1" r="4"></circle><circle cx="500.6" cy="272.1" r="4"></circle></g><g id="fw2_outer" class="outer"><circle cx="919.3" cy="238.6" r="4.1"></circle><circle cx="903.8" cy="188.2" r="4.1"></circle><circle cx="893" cy="175" r="4.1"></circle><circle cx="879.7" cy="164.1" r="4.1"></circle><circle cx="864.3" cy="155.7" r="4.1"></circle><circle cx="847.4" cy="150.4" r="4.1"></circle><circle cx="741.3" cy="256.8" r="4.1"></circle><circle cx="765.9" cy="302.3" r="4.1"></circle><circle cx="779.1" cy="313.1" r="4.1"></circle><circle cx="794.2" cy="321.4" r="4.1"></circle><circle cx="811.2" cy="326.7" r="4.1"></circle><circle cx="829.3" cy="328.5" r="4.1"></circle><circle cx="847.8" cy="326.7" r="4.1"></circle><circle cx="864.5" cy="321.3" r="4.1"></circle><circle cx="879.7" cy="313" r="4.1"></circle><circle cx="893.1" cy="301.9" r="4.1"></circle><circle cx="904" cy="288.6" r="4.1"></circle><circle cx="912.3" cy="273.5" r="4.1"></circle><circle cx="917.4" cy="256.4" r="4.1"></circle><circle cx="829.3" cy="148.6" r="4.1"></circle><circle cx="811.1" cy="150.3" r="4.1"></circle><circle cx="794.6" cy="155.6" r="4.1"></circle><circle cx="765.8" cy="174.9" r="4.1"></circle><circle cx="754.7" cy="188" r="4.1"></circle><circle cx="746.5" cy="203.4" r="4.1"></circle><circle cx="741" cy="220.8" r="4.1"></circle><circle cx="935.2" cy="238.6" r="4.1"></circle><circle cx="933.1" cy="218.1" r="4.1"></circle><circle cx="916.8" cy="179.1" r="4.1"></circle><circle cx="904.2" cy="163.7" r="4.1"></circle><circle cx="888.6" cy="150.8" r="4.1"></circle><circle cx="870.8" cy="141" r="4.1"></circle><circle cx="850.6" cy="134.8" r="4.1"></circle><circle cx="723.5" cy="238.6" r="4.1"></circle><circle cx="725.7" cy="259.5" r="4.1"></circle><circle cx="741.7" cy="297.7" r="4.1"></circle><circle cx="754.6" cy="313.6" r="4.1"></circle><circle cx="770.3" cy="326.2" r="4.1"></circle><circle cx="788.4" cy="336.2" r="4.1"></circle><circle cx="808.2" cy="342.2" r="4.1"></circle><circle cx="829.3" cy="344.4" r="4.1"></circle><circle cx="851.1" cy="342.1" r="4.1"></circle><circle cx="871" cy="335.8" r="4.1"></circle><circle cx="888.5" cy="326.4" r="4.1"></circle><circle cx="904.3" cy="313.3" r="4.1"></circle><circle cx="917.1" cy="297.3" r="4.1"></circle><circle cx="926.9" cy="279.9" r="4.1"></circle><circle cx="933" cy="259.4" r="4.1"></circle><circle cx="829.3" cy="132.7" r="4.1"></circle><circle cx="807.8" cy="135" r="4.1"></circle><circle cx="787.7" cy="141.2" r="4.1"></circle><circle cx="769.9" cy="150.8" r="4.1"></circle><circle cx="754.2" cy="163.8" r="4.1"></circle><circle cx="741.6" cy="179.4" r="4.1"></circle><circle cx="731.9" cy="197.1" r="4.1"></circle><circle cx="725.7" cy="217.3" r="4.1"></circle></g><g id="fw2_mid" class="mid"><circle cx="873.5" cy="238.6" r="4.1"></circle><circle cx="888.1" cy="238.6" r="4.1"></circle><circle cx="901.8" cy="238.6" r="4.1"></circle><circle cx="900.2" cy="223.7" r="4.1"></circle><circle cx="785.2" cy="238.6" r="4.1"></circle><circle cx="770.5" cy="238.6" r="4.1"></circle><circle cx="756.9" cy="238.6" r="4.1"></circle><circle cx="758.4" cy="253.2" r="4.1"></circle><circle cx="762.5" cy="266.7" r="4.1"></circle><circle cx="778.2" cy="289.9" r="4.1"></circle><circle cx="789.3" cy="298.9" r="4.1"></circle><circle cx="801.2" cy="305.3" r="4.1"></circle><circle cx="815" cy="309.4" r="4.1"></circle><circle cx="844.6" cy="309.4" r="4.1"></circle><circle cx="857.7" cy="305.3" r="4.1"></circle><circle cx="870.1" cy="298.5" r="4.1"></circle><circle cx="880.5" cy="289.7" r="4.1"></circle><circle cx="889.4" cy="278.8" r="4.1"></circle><circle cx="896.2" cy="266.4" r="4.1"></circle><circle cx="900.3" cy="253" r="4.1"></circle><circle cx="775.2" cy="215.5" r="4.1"></circle><circle cx="787.6" cy="197.1" r="4.1"></circle><circle cx="814.7" cy="167.4" r="4.1"></circle><circle cx="801.1" cy="171.7" r="4.1"></circle><circle cx="788.7" cy="178.5" r="4.1"></circle><circle cx="777.8" cy="187.6" r="4.1"></circle><circle cx="769.3" cy="198.2" r="4.1"></circle><circle cx="762.3" cy="210.4" r="4.1"></circle><circle cx="758.4" cy="223.7" r="4.1"></circle><circle cx="852.2" cy="184.2" r="4.1"></circle><circle cx="829.3" cy="282.7" r="4.1"></circle><circle cx="829.3" cy="297.3" r="4.1"></circle><circle cx="829.3" cy="311" r="4.1"></circle><circle cx="787.7" cy="279.8" r="4.1"></circle><circle cx="806.4" cy="292.7" r="4.1"></circle><circle cx="852.2" cy="292.7" r="4.1"></circle><circle cx="871.1" cy="279.8" r="4.1"></circle><circle cx="883.6" cy="261.1" r="4.1"></circle><circle cx="829.3" cy="194.4" r="4.1"></circle><circle cx="829.3" cy="179.7" r="4.1"></circle><circle cx="829.3" cy="166.1" r="4.1"></circle><circle cx="812.1" cy="279.2" r="4.1"></circle><circle cx="846.1" cy="279.2" r="4.1"></circle><circle cx="812.1" cy="197.6" r="4.1"></circle><circle cx="846.6" cy="197.6" r="4.1"></circle><circle cx="797.8" cy="269.5" r="4.1"></circle><circle cx="860.7" cy="270" r="4.1"></circle><circle cx="860.7" cy="207.2" r="4.1"></circle><circle cx="870.9" cy="196.9" r="4.1"></circle><circle cx="788.7" cy="221.9" r="4.1"></circle><circle cx="896.1" cy="210.1" r="4.1"></circle><circle cx="869.8" cy="178.2" r="4.1"></circle><circle cx="857.4" cy="171.8" r="4.1"></circle><circle cx="843.6" cy="167.4" r="4.1"></circle><circle cx="870" cy="255.9" r="4.1"></circle><circle cx="797.8" cy="207.2" r="4.1"></circle></g><g id="fw2_inner" class="inner"><circle cx="829.3" cy="210.4" r="4.1"></circle><circle cx="857.5" cy="238.6" r="4.1"></circle><circle cx="801.2" cy="238.6" r="4.1"></circle><circle cx="829.3" cy="266.4" r="4.1"></circle><circle cx="849.2" cy="258.2" r="4.1"></circle><circle cx="849.2" cy="218.6" r="4.1"></circle><circle cx="809.4" cy="218.6" r="4.1"></circle></g></def><g id="new-year-theme" class="new-year-theme" clip-path="url(#clip0_2842_6119)"><path fill="#0F1927" d="M0 0h1600v560H0z"></path><g id="background" class="background"><path id="Vector" fill="#152639" d="M-255 282S100.198 64.364 256.638 105.014c156.44 40.612 281.58 150.899 281.58 150.899S674.8 62.971 861.292 70.198c215.648 0 314.008 142.644 314.008 142.644s95.76-83.379 252.2-85.342c213.5 0 335 234.5 335 234.5L-255 282Z" class="Vector"></path><path id="Vector_2" fill="#1D344E" d="M-.5 487s-226.731-372.825 0-328.5c226.766 44.361 444.023 170.713 444.023 170.713s241.883-209.109 408.179-211.2c166.298-2.128 498.888 264 498.888 264s196.53-225.987 423.29-228.115C2000.65 151.77 1602.5 487 1602.5 487H-.5Z" class="Vector"></path><path id="Vector_3" fill="#1D344E" d="M-194 366.898s487.165-161.893 598.71-152.505c102.15 8.595 416.212 173.687 416.212 173.687L-194 366.898Z" class="Vector"></path><path id="Vector_4" fill="#1D344E" d="M694 337.898s487.17-161.893 598.71-152.505c102.15 8.595 416.21 173.687 416.21 173.687L694 337.898Z" class="Vector"></path></g><g id="house" class="house"><path id="Vector_5" fill="#016EDF" d="M270 193.536h32.201v-22.474L285.954 152 270 171.062v22.474Z" class="Vector"></path><path id="Vector_6" fill="#004AB5" d="M302.211 193.545h21.843v-22.473h-21.843v22.473Z" class="Vector"></path><path id="Vector_7" fill="#080D13" d="M307.806 152h-21.852l16.247 19.062h21.843L307.806 152Z" class="Vector"></path><path id="Vector_8" fill="#13204A" d="M283.369 193.535h5.463v-15.957h-5.463v15.957Z" class="Vector"></path><path id="Vector_9" fill="#EEB100" d="M310.391 186.245h5.463v-5.781h-5.463v5.781Z" class="Vector"></path><path id="Vector_10" fill="#EEB100" d="M283.227 173.174h5.463v-5.781h-5.463v5.781Z" class="Vector"></path></g><g id="house_2" class="house"><path id="Vector_11" fill="#3A9DFA" d="M82.013 368.014h-60.17V237.229l30.432-44.374 29.738 44.374v130.785Z" class="Vector"></path><path id="Vector_12" fill="#016EDF" d="M21.68 237.229H-138v130.785H21.68V237.229Z" class="Vector"></path><path id="Vector_13" fill="#080D13" d="M-107.568 192.855h159.68l-30.431 44.374H-138l30.432-44.374Z" class="Vector"></path><g id="Group" class="Group"><path id="Vector_14" fill="#13204A" d="M48.27 292.229h-6.108v20.808h6.109v-20.808Z" class="Vector"></path><path id="Vector_15" fill="#13204A" d="M61.717 292.229h-6.11v20.808h6.11v-20.808Z" class="Vector"></path></g><g id="Group_2" class="Group"><path id="Vector_16" fill="#13204A" d="M48.27 262.312h-6.108v20.808h6.109v-20.808Z" class="Vector"></path><path id="Vector_17" fill="#13204A" d="M61.717 262.312h-6.11v20.808h6.11v-20.808Z" class="Vector"></path></g><path id="Vector_18" fill="#13204A" d="M58.431 322.87h-13.33v44.701h13.33V322.87Z" class="Vector"></path><path id="Vector_19" fill="#13204A" d="M51.928 240.802c3.706 0 6.71-3.032 6.71-6.772 0-3.741-3.004-6.773-6.71-6.773-3.707 0-6.712 3.032-6.712 6.773 0 3.74 3.005 6.772 6.712 6.772Z" class="Vector"></path></g><g id="house_3" class="house"><path id="Vector_20" fill="#004AB5" d="M1223 227.138h38.09V200.56L1241.88 178 1223 200.56v26.578Z" class="Vector"></path><path id="Vector_21" fill="#15224C" d="M1261.09 227.138h25.85V200.56h-25.85v26.578Z" class="Vector"></path><path id="Vector_22" fill="#016EDF" d="M1267.71 178h-25.83l19.21 22.56h25.85L1267.71 178Z" class="Vector"></path><path id="Vector_23" fill="#13204A" d="M1238.83 227.138h6.46v-18.871h-6.46v18.871Z" class="Vector"></path><path id="Vector_24" fill="#EEB100" d="M1270.79 218.52h6.46v-6.843h-6.46v6.843Z" class="Vector"></path><path id="Vector_25" fill="#EEB100" d="M1238.64 203.036h6.46v-6.843h-6.46v6.843Z" class="Vector"></path></g><path id="foreground" fill="#305986" d="M-43 370.878s226.576-64.092 482.659 43.911c167.698 70.728 275.439 23.647 452.841 26.278 285.64 4.236 707.5 77.427 707.5 77.427V560.5H.5L-43 370.848v.03Z" class="foreground"></path><g id="tree" class="tree"><path id="Vector_26" fill="#3A9DFA" d="m37.3 371-17.45 30.501h34.898L37.3 371Z" class="Vector"></path><path id="Vector_27" fill="#3A9DFA" d="M37.3 386.25 16.1 423.314h42.397L37.299 386.25Z" class="Vector"></path><g id="Group_3" class="Group"><path id="Vector_28" fill="#3A9DFA" d="M39.66 447.252h-4.698v9.692h4.698v-9.692Z" class="Vector"></path><path id="Vector_29" fill="#3A9DFA" d="M37.3 404.771 13 447.252h48.599l-24.3-42.481Z" class="Vector"></path></g></g><g id="tree_2" class="tree"><path id="Vector_30" fill="#016EDF" d="m327.778 431-12.057 21.066h24.114L327.778 431Z" class="Vector"></path><path id="Vector_31" fill="#016EDF" d="m327.778 441.533-14.649 25.597h29.298l-14.649-25.597Z" class="Vector"></path><g id="Group_4" class="Group"><path id="Vector_32" fill="#016EDF" d="M329.398 483.664h-3.24v6.703h3.24v-6.703Z" class="Vector"></path><path id="Vector_33" fill="#016EDF" d="M327.778 454.331 311 483.664h33.556l-16.778-29.333Z" class="Vector"></path></g></g><g id="tree_3" class="tree"><path id="Vector_34" fill="#23405F" d="m241.993 225.327-11.495 20.109h22.99l-11.495-20.109Z" class="Vector"></path><path id="Vector_35" fill="#23405F" d="m241.993 235.374-13.965 24.416h27.929l-13.964-24.416Z" class="Vector"></path><g id="Group_5" class="Group"><path id="Vector_36" fill="#23405F" d="M243.547 275.561h-3.094v6.384h3.094v-6.384Z" class="Vector"></path><path id="Vector_37" fill="#23405F" d="M241.992 247.59 226 275.56h32l-16.008-27.97Z" class="Vector"></path></g></g><path id="Vector_38" fill="#305986" d="M978 560s303.08-195.68 418.34-183.45C1501.89 387.774 1834 560 1834 560H978Z" class="Vector"></path><g id="house_4" class="house"><path id="Vector_39" fill="#3A9DFA" d="M1433 453.989h50.07v-108.84l-25.32-36.927-24.75 36.927v108.84Z" class="Vector"></path><path id="Vector_40" fill="#016EDF" d="M1483.07 453.97h132.89V345.13h-132.89v108.84Z" class="Vector"></path><path id="Vector_41" fill="#080D13" d="M1590.63 308.202h-132.88l25.32 36.928h132.89l-25.33-36.928Z" class="Vector"></path><g id="Group_6" class="Group"><path id="Vector_42" fill="#13204A" d="M1586.63 383.302h5.08v-17.317h-5.08v17.317Z" class="Vector"></path><path id="Vector_43" fill="#13204A" d="M1575.44 383.302h5.08v-17.317h-5.08v17.317Z" class="Vector"></path><path id="Vector_44" fill="#13204A" d="M1564.25 383.302h5.08v-17.317h-5.08v17.317Z" class="Vector"></path><path id="Vector_45" fill="#13204A" d="M1553.04 383.302h5.09v-17.317h-5.09v17.317Z" class="Vector"></path></g><g id="Group_7" class="Group"><path id="Vector_46" fill="#13204A" d="M1586.63 408.51h5.08v-17.317h-5.08v17.317Z" class="Vector"></path><path id="Vector_47" fill="#13204A" d="M1575.44 408.51h5.08v-17.317h-5.08v17.317Z" class="Vector"></path><path id="Vector_48" fill="#EEB100" d="M1564.25 408.51h5.08v-17.317h-5.08v17.317Z" class="Vector"></path><path id="Vector_49" fill="#13204A" d="M1553.04 408.51h5.09v-17.317h-5.09v17.317Z" class="Vector"></path></g><g id="Group_8" class="Group"><path id="Vector_50" fill="#13204A" d="M1541.89 383.302h5.09v-17.317h-5.09v17.317Z" class="Vector"></path><path id="Vector_51" fill="#13204A" d="M1530.7 383.302h5.09v-17.317h-5.09v17.317Z" class="Vector"></path><path id="Vector_52" fill="#13204A" d="M1519.53 383.302h5.09v-17.317h-5.09v17.317Z" class="Vector"></path><path id="Vector_53" fill="#13204A" d="M1508.34 383.302h5.09v-17.317h-5.09v17.317Z" class="Vector"></path></g><g id="Group_9" class="Group"><path id="Vector_54" fill="#13204A" d="M1460.94 408.198h5.09v-17.317h-5.09v17.317Z" class="Vector"></path><path id="Vector_55" fill="#13204A" d="M1449.76 408.198h5.08v-17.317h-5.08v17.317Z" class="Vector"></path></g><g id="Group_10" class="Group"><path id="Vector_56" fill="#13204A" d="M1460.94 383.302h5.09v-17.317h-5.09v17.317Z" class="Vector"></path><path id="Vector_57" fill="#13204A" d="M1449.76 383.302h5.08v-17.317h-5.08v17.317Z" class="Vector"></path></g><g id="Group_11" class="Group"><path id="Vector_58" fill="#13204A" d="M1586.63 433.698h5.08v-17.317h-5.08v17.317Z" class="Vector"></path><path id="Vector_59" fill="#13204A" d="M1575.44 433.698h5.08v-17.317h-5.08v17.317Z" class="Vector"></path><path id="Vector_60" fill="#13204A" d="M1564.25 433.698h5.08v-17.317h-5.08v17.317Z" class="Vector"></path><path id="Vector_61" fill="#13204A" d="M1553.04 433.698h5.09v-17.317h-5.09v17.317Z" class="Vector"></path></g><g id="Group_12" class="Group"><path id="Vector_62" fill="#13204A" d="M1541.89 433.698h5.09v-17.317h-5.09v17.317Z" class="Vector"></path><path id="Vector_63" fill="#13204A" d="M1530.7 433.698h5.09v-17.317h-5.09v17.317Z" class="Vector"></path><path id="Vector_64" fill="#13204A" d="M1519.53 433.698h5.09v-17.317h-5.09v17.317Z" class="Vector"></path><path id="Vector_65" fill="#13204A" d="M1508.34 433.698h5.09v-17.317h-5.09v17.317Z" class="Vector"></path></g><g id="Group_13" class="Group"><path id="Vector_66" fill="#13204A" d="M1541.89 408.51h5.09v-17.317h-5.09v17.317Z" class="Vector"></path><path id="Vector_67" fill="#13204A" d="M1530.7 408.51h5.09v-17.317h-5.09v17.317Z" class="Vector"></path><path id="Vector_68" fill="#EEB100" d="M1519.53 408.51h5.09v-17.317h-5.09v17.317Z" class="Vector"></path><path id="Vector_69" fill="#13204A" d="M1508.34 408.51h5.09v-17.317h-5.09v17.317Z" class="Vector"></path></g><path id="Vector_70" fill="#EEB100" d="M1452.49 453.97h11.09v-37.2h-11.09v37.2Z" class="Vector"></path><path id="Vector_71" fill="#016EDF" d="M1558.13 326.666h8.64V300h-8.64v26.666Z" class="Vector"></path><path id="Vector_72" fill="#13204A" d="M1457.88 348.084c3.09 0 5.59-2.523 5.59-5.636s-2.5-5.636-5.59-5.636c-3.08 0-5.58 2.523-5.58 5.636s2.5 5.636 5.58 5.636Z" class="Vector"></path></g><path id="Vector_73" fill="#EEB100" d="M1448.69 454 816 560h336.83L1463 454h-14.31Z" class="Vector"></path><path id="Vector_74" fill="#305986" d="M1423 487.335s66.97-37.554 77.25-40.684c10.27-3.129 29.62-5.885 54.36 6.563 26.91 13.545 131.38 18.567 131.38 18.567L1423 487.335Z" class="Vector"></path><g id="house_5" class="house"><path id="Vector_75" fill="#004AB5" d="M1485.82 143.138h-24.91v-17.383L1473.47 111l12.35 14.755v17.383Z" class="Vector"></path><path id="Vector_76" fill="#15224C" d="M1460.91 125.755H1444v17.382h16.91v-17.382Z" class="Vector"></path><path id="Vector_77" fill="#080D13" d="M1456.58 111h16.89l-12.56 14.755H1444L1456.58 111Z" class="Vector"></path><path id="Vector_78" fill="#13204A" d="M1475.47 130.796h-4.23v12.342h4.23v-12.342Z" class="Vector"></path><path id="Vector_79" fill="#EEB100" d="M1454.56 133.026h-4.22v4.476h4.22v-4.476Z" class="Vector"></path><path id="Vector_80" fill="#EEB100" d="M1475.59 122.914h-4.22v4.476h4.22v-4.476Z" class="Vector"></path></g><g id="tree_4" class="tree"><path id="Vector_81" fill="#23405F" d="m1484.5 420-11.13 19.462h22.26L1484.5 420Z" class="Vector"></path><path id="Vector_82" fill="#23405F" d="m1484.5 429.717-13.52 23.646h27.04l-13.52-23.646Z" class="Vector"></path><g id="Group_14" class="Group"><path id="Vector_83" fill="#23405F" d="M1485.98 468.612H1483v6.179h2.98v-6.179Z" class="Vector"></path><path id="Vector_84" fill="#23405F" d="m1484.5 441.54-15.5 27.072h31l-15.5-27.072Z" class="Vector"></path></g></g><g id="tree_5" class="tree"><path id="Vector_85" fill="#1D344E" d="m1504.97 90-8.6 15.033h17.21L1504.97 90Z" class="Vector"></path><path id="Vector_86" fill="#1D344E" d="m1504.97 97.517-10.45 18.266h20.91l-10.46-18.266Z" class="Vector"></path><g id="Group_15" class="Group"><path id="Vector_87" fill="#1D344E" d="M1506.13 127.584h-2.31v4.783h2.31v-4.783Z" class="Vector"></path><path id="Vector_88" fill="#1D344E" d="M1504.97 106.65 1493 127.584h23.95l-11.98-20.934Z" class="Vector"></path></g></g><g id="house_6" class="house"><path id="Vector_89" fill="#016EDF" d="M296 471.282h-75.592V345.645L258.531 303 296 345.645v125.637Z" class="Vector"></path><path id="Vector_90" fill="#004AB5" d="M220.408 345.645H67v125.663h153.408V345.645Z" class="Vector"></path><path id="Vector_91" fill="#080D13" d="M105.123 303h153.408l-38.123 42.645H67L105.123 303Z" class="Vector"></path><g id="Group_16" class="Group"><path id="Vector_92" fill="#13204A" d="M107.818 369.727h-12.82v31.501h12.82v-31.501Z" class="Vector"></path><path id="Vector_93" fill="#13204A" d="M136.025 369.727h-12.821v31.501h12.821v-31.501Z" class="Vector"></path><path id="Vector_94" fill="#13204A" d="M164.205 369.727h-12.821v31.501h12.821v-31.501Z" class="Vector"></path><path id="Vector_95" fill="#13204A" d="M192.411 369.727H179.59v31.501h12.821v-31.501Z" class="Vector"></path></g><g id="Group_17" class="Group"><path id="Vector_96" fill="#13204A" d="M107.818 415.54h-12.82v31.502h12.82V415.54Z" class="Vector"></path><path id="Vector_97" fill="#13204A" d="M136.025 415.54h-12.821v31.502h12.821V415.54Z" class="Vector"></path><path id="Vector_98" fill="#EEB100" d="M164.205 415.54h-12.821v31.502h12.821V415.54Z" class="Vector"></path><path id="Vector_99" fill="#13204A" d="M192.411 415.54H179.59v31.502h12.821V415.54Z" class="Vector"></path></g><path id="Vector_100" fill="#13204A" d="M264.601 431.305H251.78v39.555h12.821v-39.555Z" class="Vector"></path><path id="Vector_101" fill="#13204A" d="M264.601 390.824H251.78v12.939h12.821v-12.939Z" class="Vector"></path><path id="Vector_102" fill="#EEB100" d="M264.601 360.194H251.78v12.939h12.821v-12.939Z" class="Vector"></path></g><g id="tree_6" class="tree"><path id="Vector_103" fill="#016EDF" d="m63.778 420-12.057 21.066h24.114L63.778 420Z" class="Vector"></path><path id="Vector_104" fill="#016EDF" d="m63.778 430.533-14.65 25.597h29.299l-14.65-25.597Z" class="Vector"></path><g id="Group_18" class="Group"><path id="Vector_105" fill="#016EDF" d="M65.398 472.664h-3.24v6.703h3.24v-6.703Z" class="Vector"></path><path id="Vector_106" fill="#016EDF" d="M63.778 443.331 47 472.664h33.556l-16.778-29.333Z" class="Vector"></path></g></g><g id="clock-tower" class="clock-tower"><path id="Vector_107" fill="#080D13" d="M1401 410.133h-121l19.52-65.392h81.96l19.52 65.392Z" class="Vector"></path><path id="Vector_108" fill="#016EDF" d="M1372.75 284.211h-64.5v60.53h64.5v-60.53Z" class="Vector"></path><path id="Vector_109" fill="#016EDF" d="M1390 410h-98v150h98V410Z" class="Vector"></path><path id="Vector_110" fill="#ADDCF1" d="M1340.51 333.656c11.06 0 20.03-9.052 20.03-20.219 0-11.168-8.97-20.22-20.03-20.22-11.07 0-20.04 9.052-20.04 20.22 0 11.167 8.97 20.219 20.04 20.219Z" class="Vector"></path><path id="Vector_111" stroke="#0F1927" stroke-miterlimit="10" d="M1340.51 313.436v-15.634" class="Vector"></path><path id="Vector_112" stroke="#0F1927" stroke-miterlimit="10" d="M1323.83 313.436h4.42" class="Vector"></path><path id="Vector_113" stroke="#0F1927" stroke-miterlimit="10" d="M1352.86 313.436h4.42" class="Vector"></path><path id="Vector_114" stroke="#0F1927" stroke-miterlimit="10" d="M1340.51 325.646v4.456" class="Vector"></path><path id="Vector_115" fill="#080D13" d="m1340.51 181-37.68 103.583h75.34L1340.51 181Z" class="Vector"></path></g><path id="Rectangle 557" fill="#080D13" d="M1335 434h12v39h-12z" class="Rectangle 557"></path><g id="Group_19" class="Group"><path id="Vector_116" fill="#3A9DFA" d="m186.299 183-17.449 30.501h34.898L186.299 183Z" class="Vector"></path><path id="Vector_117" fill="#3A9DFA" d="m186.299 198.251-21.198 37.063h42.396l-21.198-37.063Z" class="Vector"></path><g id="Group_20" class="Group"><path id="Vector_118" fill="#3A9DFA" d="M188.66 259.252h-4.698v9.692h4.698v-9.692Z" class="Vector"></path><path id="Vector_119" fill="#3A9DFA" d="M186.299 216.794 162 259.252h48.598l-24.299-42.458Z" class="Vector"></path></g></g></g><g id="firework1" transform="translate(-222,-90)"><use xlink:href="#fw1_inner" id="fw1_1" data-svg-origin="392 220.39999389648438" style="opacity: 0.719104; transform: matrix3d(1, 0, 0, 0, 0, 1, 0, 0, 0, 0, 1, 0, 0, 0, 0, 1);"></use><use xlink:href="#fw1_mid" id="fw1_2" data-svg-origin="347.29998779296875 175.60000610351562" style="opacity: 1; transform: matrix3d(1, 0, 0, 0, 0, 1, 0, 0, 0, 0, 1, 0, 0, 0, 0, 1);"></use><use xlink:href="#fw1_outer" id="fw1_3" data-svg-origin="333.29998779296875 161.6999969482422" style="opacity: 1; transform: matrix3d(1, 0, 0, 0, 0, 1, 0, 0, 0, 0, 1, 0, 0, 0, 0, 1);"></use></g><g id="firework2" transform="translate(-143,-50)"><use xlink:href="#fw1_inner" id="fw2_1" data-svg-origin="392 220.39999389648438" style="opacity: 1; transform: matrix3d(1, 0, 0, 0, 0, 1, 0, 0, 0, 0, 1, 0, 0, 0, 0, 1);"></use><use xlink:href="#fw1_mid" id="fw2_2" data-svg-origin="347.29998779296875 175.60000610351562" style="opacity: 1; transform: matrix3d(1, 0, 0, 0, 0, 1, 0, 0, 0, 0, 1, 0, 0, 0, 0, 1);"></use><use xlink:href="#fw1_outer" id="fw2_3" data-svg-origin="333.29998779296875 161.6999969482422" style="opacity: 1; transform: matrix3d(1, 0, 0, 0, 0, 1, 0, 0, 0, 0, 1, 0, 0, 0, 0, 1);"></use></g><g id="firework3" transform="translate(700,-78)"><use xlink:href="#fw1_inner" id="fw3_1" data-svg-origin="392 220.39999389648438" style="opacity: 0; transform: matrix3d(1, 0, 0, 0, 0, 1, 0, 0, 0, 0, 1, 0, 0, 0, 0, 1);"></use><use xlink:href="#fw1_mid" id="fw3_2" data-svg-origin="347.29998779296875 175.60000610351562" style="opacity: 0; transform: matrix3d(1, 0, 0, 0, 0, 1, 0, 0, 0, 0, 1, 0, 0, 0, 0, 1);"></use><use xlink:href="#fw1_outer" id="fw3_3" data-svg-origin="333.29998779296875 161.6999969482422" style="opacity: 0; transform: matrix3d(1, 0, 0, 0, 0, 1, 0, 0, 0, 0, 1, 0, 0, 0, 0, 1);"></use></g><g id="firework4" transform="translate(810,-20)"><use xlink:href="#fw1_inner" id="fw4_1" data-svg-origin="392 220.39999389648438" style="opacity: 0; transform: matrix3d(1, 0, 0, 0, 0, 1, 0, 0, 0, 0, 1, 0, 0, 0, 0, 1);"></use><use xlink:href="#fw1_mid" id="fw4_2" data-svg-origin="347.29998779296875 175.60000610351562" style="opacity: 0; transform: matrix3d(1, 0, 0, 0, 0, 1, 0, 0, 0, 0, 1, 0, 0, 0, 0, 1);"></use><use xlink:href="#fw1_outer" id="fw4_3" data-svg-origin="333.29998779296875 161.6999969482422" style="opacity: 0; transform: matrix3d(1, 0, 0, 0, 0, 1, 0, 0, 0, 0, 1, 0, 0, 0, 0, 1);"></use></g><g id="finish" style="display: none;"><g id="firework5" transform="translate(0,-136)"><use xlink:href="#fw1_inner" id="fw5_1"></use><use xlink:href="#fw1_mid" id="fw5_2"></use><use xlink:href="#fw1_outer" id="fw5_3"></use></g><g id="firework6" transform="translate(80,4)"><use xlink:href="#fw1_inner" id="fw6_1"></use><use xlink:href="#fw1_mid" id="fw6_2"></use><use xlink:href="#fw1_outer" id="fw6_3"></use></g><g id="firework7" transform="translate(208,114)"><use xlink:href="#fw1_inner" id="fw7_1"></use><use xlink:href="#fw1_mid" id="fw7_2"></use><use xlink:href="#fw1_outer" id="fw7_3"></use></g><g id="firework8" transform="translate(370,84)"><use xlink:href="#fw1_inner" id="fw8_1"></use><use xlink:href="#fw1_mid" id="fw8_2"></use><use xlink:href="#fw1_outer" id="fw8_3"></use></g><g id="firework9" transform="translate(530,-96)"><use xlink:href="#fw1_inner" id="fw9_1"></use><use xlink:href="#fw1_mid" id="fw9_2"></use><use xlink:href="#fw1_outer" id="fw9_3"></use></g><g id="firework10" transform="translate(761,70)"><use xlink:href="#fw1_inner" id="fw10_1"></use><use xlink:href="#fw1_mid" id="fw10_2"></use><use xlink:href="#fw1_outer" id="fw10_3"></use></g><g id="firework11" transform="translate(-300,80)"><use xlink:href="#fw1_inner" id="fw11_1"></use><use xlink:href="#fw1_mid" id="fw11_2"></use><use xlink:href="#fw1_outer" id="fw11_3"></use></g><g id="firework12" transform="translate(-90,-70)"><use xlink:href="#fw2_inner" id="fw12_1"></use><use xlink:href="#fw2_mid" id="fw12_2"></use><use xlink:href="#fw2_outer" id="fw12_3"></use></g><g id="firework13" transform="translate(170,50)"><use xlink:href="#fw2_inner" id="fw13_1"></use><use xlink:href="#fw2_mid" id="fw13_2"></use><use xlink:href="#fw2_outer" id="fw13_3"></use></g><g id="firework14" transform="translate(-490,100)"><use xlink:href="#fw2_inner" id="fw14_1"></use><use xlink:href="#fw2_mid" id="fw14_2"></use><use xlink:href="#fw2_outer" id="fw14_3"></use></g></g></svg>